<svg width="187" height="35" viewBox="0 0 187 35" fill="none" xmlns="http://www.w3.org/2000/svg">
<path d="M23.1739 23.3943L34.8335 18.3411L41.5445 22.1308L42.9002 34.564L34.6301 34.4979L35.8503 25.8539L34.4267 25.0561L27.4445 30.3753L23.1739 23.3943Z" fill="#81818B"/>
<path d="M42.2906 21.5985L52.5945 28.9783L56.6616 21.8645L48.3913 18.6066V17.0109L56.6616 13.6866L52.5945 6.63892L42.2906 14.019V21.5985Z" fill="#81818B"/>
<path d="M41.5445 13.4209L42.9002 0.987793L34.6301 1.12078L35.8503 9.76406L34.4267 10.5619L27.3767 5.24297L23.1739 12.1576L34.8335 17.2107L41.5445 13.4209Z" fill="#81818B"/>
<path d="M84.2524 16.2858V27.934H88.7034V13.0895H82.2217V16.2858H84.2524Z" fill="#81818B"/>
<path d="M84.1133 11.0038C84.5213 11.4191 85.1429 11.6267 85.9771 11.6267C86.8124 11.6267 87.424 11.4191 87.813 11.0038C88.2215 10.5702 88.4252 10.0284 88.4252 9.37848C88.4252 8.71021 88.2215 8.16846 87.813 7.75319C87.424 7.3198 86.8124 7.10303 85.9771 7.10303C85.1429 7.10303 84.5213 7.3198 84.1133 7.75319C83.7243 8.16846 83.5295 8.71021 83.5295 9.37848C83.5295 10.0284 83.7243 10.5702 84.1133 11.0038Z" fill="#81818B"/>
<path d="M68.7576 27.6087C70.0186 28.1685 71.5669 28.4486 73.4028 28.4486C75.128 28.4486 76.6111 28.1864 77.8543 27.6629C79.097 27.1393 80.0519 26.4078 80.7192 25.4686C81.4059 24.5115 81.7487 23.401 81.7487 22.1368C81.7487 20.9089 81.4248 19.8705 80.7754 19.0216C80.1443 18.1549 79.2639 17.4777 78.1325 16.9902C77.0012 16.4844 75.6934 16.1684 74.2097 16.0422L72.6521 15.9067C71.7249 15.8343 71.0571 15.5907 70.6492 15.1752C70.2407 14.7599 70.037 14.2722 70.037 13.7126C70.037 13.279 70.1489 12.8818 70.3704 12.5206C70.5935 12.1414 70.9269 11.8434 71.3721 11.6266C71.8362 11.4101 72.4016 11.3017 73.0694 11.3017C73.774 11.3017 74.3583 11.4279 74.8219 11.6809C74.9237 11.7344 75.0209 11.7915 75.1117 11.8521L75.1337 11.8672C75.1678 11.8901 75.2015 11.9139 75.234 11.9379C75.5159 12.1474 75.7401 12.3959 75.9071 12.6832C76.1475 13.0805 76.2688 13.5228 76.2688 14.0105H80.7192C80.7192 12.7101 80.4131 11.5815 79.8015 10.6245C79.1899 9.64928 78.3089 8.8999 77.1592 8.376C76.0273 7.83425 74.6644 7.56335 73.0694 7.56335C71.5485 7.56335 70.2318 7.81635 69.1188 8.32193C68.0063 8.8096 67.1348 9.51383 66.5043 10.4347C65.8916 11.3557 65.5856 12.4484 65.5856 13.7126C65.5856 15.4642 66.1888 16.8727 67.3942 17.9383C68.5996 19.0037 70.2134 19.6177 72.2347 19.7802L73.7651 19.9157C75.0072 20.0241 75.9071 20.2679 76.4636 20.6469C77.0195 21.0081 77.2978 21.5047 77.2978 22.1368C77.2978 22.4273 77.249 22.6997 77.1513 22.9543C77.0789 23.1433 76.9791 23.3222 76.8531 23.4913C76.5554 23.8703 76.1202 24.1683 75.5453 24.3854C74.9704 24.6019 74.2565 24.7102 73.4028 24.7102C72.4573 24.7102 71.6876 24.584 71.0944 24.3308C70.5006 24.0601 70.0559 23.7079 69.7583 23.2748C69.4805 22.8411 69.3419 22.3717 69.3419 21.8659H64.9183C64.9183 23.1481 65.2427 24.286 65.8916 25.2789C66.5411 26.2543 67.496 27.0311 68.7576 27.6087Z" fill="#81818B"/>
<path d="M98.6348 28.1233C97.095 28.1233 95.8528 27.943 94.9068 27.5815C93.9607 27.2025 93.2656 26.5792 92.8204 25.7125C92.3941 24.8275 92.1805 23.6359 92.1805 22.1368V16.2587H89.8715V13.0895H92.1805V9.08057H96.3253V13.0895H100.777V16.2587H96.3253V22.2996C96.3253 23.0038 96.5112 23.5455 96.8818 23.9245C97.2714 24.286 97.8184 24.4664 98.5235 24.4664H100.777V28.1233H98.6348Z" fill="#81818B"/>
<path fill-rule="evenodd" clip-rule="evenodd" d="M106.136 27.7984C107.137 28.2316 108.287 28.4486 109.585 28.4486C110.865 28.4486 111.997 28.2316 112.979 27.7984C113.962 27.3648 114.779 26.7599 115.427 25.9836C116.076 25.2068 116.513 24.3218 116.735 23.3289H112.646C112.46 23.7804 112.108 24.1594 111.589 24.4663C111.069 24.7733 110.401 24.9272 109.585 24.9272C109.08 24.9272 108.628 24.8686 108.23 24.7522C107.927 24.6637 107.656 24.5415 107.415 24.3854C106.859 24.0243 106.451 23.5182 106.191 22.8683C106.119 22.6832 106.058 22.4895 106.006 22.2878C105.953 22.0834 105.91 21.8708 105.878 21.6494H117.013V20.1865C117.013 18.8321 116.716 17.5861 116.123 16.4485C115.529 15.2925 114.667 14.3625 113.536 13.6583C112.423 12.9359 111.051 12.5747 109.418 12.5747C108.176 12.5747 107.063 12.7915 106.08 13.2249C105.116 13.6402 104.309 14.209 103.66 14.9314C103.011 15.6537 102.51 16.4756 102.157 17.3966C101.824 18.2993 101.657 19.2474 101.657 20.2407V20.7824C101.657 21.7397 101.824 22.6786 102.157 23.5997C102.51 24.5026 103.011 25.3241 103.66 26.0646C104.327 26.7872 105.152 27.3648 106.136 27.7984ZM105.955 18.9708C105.967 18.9135 105.98 18.857 105.994 18.8014C106.033 18.6483 106.077 18.5015 106.128 18.3613C106.157 18.2814 106.187 18.2035 106.22 18.1278C106.497 17.4596 106.906 16.954 107.443 16.611C107.644 16.4827 107.862 16.3784 108.096 16.2982C108.49 16.1636 108.931 16.0963 109.418 16.0963C110.179 16.0963 110.809 16.2679 111.31 16.611C111.829 16.9359 112.219 17.4145 112.479 18.0465C112.5 18.0975 112.52 18.1495 112.539 18.202C112.569 18.2858 112.598 18.3717 112.625 18.4598C112.664 18.5909 112.698 18.7266 112.728 18.8668C112.751 18.9702 112.769 19.076 112.786 19.1844H105.912C105.925 19.112 105.939 19.0409 105.955 18.9708Z" fill="#81818B"/>
<path d="M118.85 27.934V13.0895H122.383V16.8282C122.431 16.6059 122.486 16.3926 122.546 16.1881C122.599 16.0157 122.655 15.8495 122.717 15.6899C123.106 14.6785 123.69 13.9202 124.469 13.4144C125.248 12.8907 126.203 12.629 127.335 12.629H127.529C128.679 12.629 129.634 12.8907 130.395 13.4144C131.174 13.9202 131.758 14.6785 132.147 15.6899L132.178 15.7662L132.204 15.836C132.222 15.7867 132.24 15.7381 132.258 15.6899C132.666 14.6785 133.26 13.9202 134.039 13.4144C134.818 12.8907 135.773 12.629 136.905 12.629H137.099C138.249 12.629 139.213 12.8907 139.992 13.4144C140.79 13.9202 141.393 14.6785 141.8 15.6899C142.208 16.7012 142.413 17.9654 142.413 19.4823V27.934H137.961V19.2384C137.961 18.4258 137.739 17.7667 137.294 17.2611C136.867 16.7553 136.255 16.5025 135.458 16.5025C134.66 16.5025 134.03 16.7645 133.566 17.2881C133.103 17.7937 132.871 18.4709 132.871 19.3198V27.934H128.392V19.2384C128.392 18.4258 128.169 17.7667 127.724 17.2611C127.298 16.7553 126.694 16.5025 125.916 16.5025C125.1 16.5025 124.46 16.7645 123.996 17.2881C123.533 17.7937 123.301 18.4709 123.301 19.3198V27.934H118.85Z" fill="#81818B"/>
<path fill-rule="evenodd" clip-rule="evenodd" d="M154.303 25.0736V27.9341H157.835V18.8322C157.835 17.4597 157.557 16.3402 157.001 15.4732C156.444 14.5883 155.629 13.9293 154.553 13.4959C153.496 13.0625 152.188 12.8457 150.63 12.8457C150.293 12.8457 149.94 12.8492 149.573 12.8564C149.356 12.8608 149.133 12.8662 148.906 12.8728C148.293 12.8909 147.7 12.9179 147.125 12.9541L146.686 12.9829C146.46 12.9982 146.249 13.0132 146.049 13.0285C145.9 13.0398 145.757 13.0512 145.623 13.0625V16.7195C146.198 16.6832 146.838 16.6471 147.543 16.6111C147.74 16.601 147.935 16.5916 148.129 16.5829C148.409 16.5703 148.685 16.5593 148.959 16.5498C149.175 16.5421 149.389 16.5353 149.601 16.5297C150.269 16.5116 150.807 16.5026 151.215 16.5026C152.03 16.5026 152.624 16.6922 152.995 17.0715C153.366 17.4507 153.551 18.0196 153.551 18.7782V18.8322H150.797C149.444 18.8322 148.247 19.0038 147.208 19.347C146.17 19.672 145.363 20.1866 144.789 20.8909C144.213 21.5773 143.926 22.4621 143.926 23.5456C143.926 24.5389 144.158 25.3967 144.621 26.1193C145.085 26.8231 145.725 27.3649 146.541 27.7439C147.376 28.1234 148.34 28.3131 149.434 28.3131C150.491 28.3131 151.382 28.1234 152.105 27.7439C152.847 27.3649 153.422 26.8231 153.83 26.1193C153.902 26.0003 153.968 25.8772 154.031 25.7493C154.119 25.5685 154.198 25.3783 154.267 25.1787L154.303 25.0736ZM153.551 22.4351V21.2431H150.769C149.99 21.2431 149.388 21.4327 148.961 21.812C148.553 22.1732 148.349 22.6698 148.349 23.3018C148.349 23.5993 148.4 23.8696 148.501 24.1134C148.604 24.3577 148.757 24.5747 148.961 24.7644C149.388 25.126 149.99 25.3063 150.769 25.3063C150.917 25.3063 151.061 25.2991 151.199 25.2853C151.312 25.2736 151.422 25.2571 151.529 25.236C151.732 25.1958 151.925 25.1376 152.105 25.0624C152.513 24.8821 152.847 24.5841 153.106 24.1684C153.366 23.7532 153.515 23.1751 153.551 22.4351Z" fill="#81818B"/>
<path d="M160.499 27.9341V13.0895H164.033V17.9892C164.202 16.5905 164.628 15.4627 165.312 14.6065C166.24 13.4689 167.574 12.9 169.318 12.9H169.903V16.6381H168.79C167.566 16.6381 166.62 16.9631 165.952 17.6132C165.284 18.2453 164.95 19.1664 164.95 20.3761V27.9341H160.499Z" fill="#81818B"/>
<path d="M175.547 20.9993H177.021L181.834 27.9341H186.841L180.739 19.4174L185.756 13.0896H181.083L175.547 20.1478V8.15955H171.096V27.9341H175.547V20.9993Z" fill="#81818B"/>
</svg>
